<svg id="visual" viewBox="0 0 2100 900" width="2100" height="900" xmlns="http://www.w3.org/2000/svg" xmlns:xlink="http://www.w3.org/1999/xlink" version="1.1"><rect x="0" y="0" width="2100" height="900" fill="#1c205d"></rect><path d="M0 345L300 308L600 205L900 348L1200 294L1500 199L1800 208L2100 255L2100 901L1800 901L1500 901L1200 901L900 901L600 901L300 901L0 901Z" fill="#0a58f5"></path><path d="M0 358L300 407L600 423L900 251L1200 366L1500 311L1800 272L2100 415L2100 901L1800 901L1500 901L1200 901L900 901L600 901L300 901L0 901Z" fill="#7449e2"></path><path d="M0 294L300 388L600 434L900 290L1200 462L1500 482L1800 434L2100 392L2100 901L1800 901L1500 901L1200 901L900 901L600 901L300 901L0 901Z" fill="#9d37cc"></path><path d="M0 374L300 497L600 332L900 371L1200 520L1500 517L1800 481L2100 406L2100 901L1800 901L1500 901L1200 901L900 901L600 901L300 901L0 901Z" fill="#b724b4"></path><path d="M0 570L300 493L600 461L900 502L1200 552L1500 449L1800 428L2100 525L2100 901L1800 901L1500 901L1200 901L900 901L600 901L300 901L0 901Z" fill="#c70e9c"></path><path d="M0 552L300 511L600 494L900 595L1200 507L1500 525L1800 589L2100 530L2100 901L1800 901L1500 901L1200 901L900 901L600 901L300 901L0 901Z" fill="#d10084"></path><path d="M0 656L300 603L600 671L900 650L1200 652L1500 591L1800 539L2100 606L2100 901L1800 901L1500 901L1200 901L900 901L600 901L300 901L0 901Z" fill="#d6006c"></path><path d="M0 677L300 630L600 622L900 669L1200 720L1500 618L1800 626L2100 685L2100 901L1800 901L1500 901L1200 901L900 901L600 901L300 901L0 901Z" fill="#d60054"></path><path d="M0 751L300 709L600 702L900 715L1200 737L1500 732L1800 670L2100 663L2100 901L1800 901L1500 901L1200 901L900 901L600 901L300 901L0 901Z" fill="#d3003b"></path><path d="M0 728L300 750L600 738L900 743L1200 762L1500 776L1800 777L2100 731L2100 901L1800 901L1500 901L1200 901L900 901L600 901L300 901L0 901Z" fill="#cc0022"></path><path d="M0 796L300 813L600 840L900 801L1200 849L1500 824L1800 795L2100 797L2100 901L1800 901L1500 901L1200 901L900 901L600 901L300 901L0 901Z" fill="#c10000"></path></svg>