<svg id="visual" viewBox="0 0 2100 1500" width="2100" height="1500" xmlns="http://www.w3.org/2000/svg" xmlns:xlink="http://www.w3.org/1999/xlink" version="1.1"><path d="M0 76L111 76L111 91L221 91L221 151L332 151L332 106L442 106L442 76L553 76L553 121L663 121L663 151L774 151L774 76L884 76L884 61L995 61L995 106L1105 106L1105 121L1216 121L1216 106L1326 106L1326 121L1437 121L1437 61L1547 61L1547 106L1658 106L1658 106L1768 106L1768 151L1879 151L1879 166L1989 166L1989 76L2100 76L2100 91L2100 0L2100 0L1989 0L1989 0L1879 0L1879 0L1768 0L1768 0L1658 0L1658 0L1547 0L1547 0L1437 0L1437 0L1326 0L1326 0L1216 0L1216 0L1105 0L1105 0L995 0L995 0L884 0L884 0L774 0L774 0L663 0L663 0L553 0L553 0L442 0L442 0L332 0L332 0L221 0L221 0L111 0L111 0L0 0Z" fill="#fa7268"></path><path d="M0 166L111 166L111 181L221 181L221 286L332 286L332 256L442 256L442 226L553 226L553 181L663 181L663 226L774 226L774 196L884 196L884 196L995 196L995 166L1105 166L1105 211L1216 211L1216 271L1326 271L1326 271L1437 271L1437 121L1547 121L1547 271L1658 271L1658 181L1768 181L1768 316L1879 316L1879 226L1989 226L1989 256L2100 256L2100 226L2100 89L2100 74L1989 74L1989 164L1879 164L1879 149L1768 149L1768 104L1658 104L1658 104L1547 104L1547 59L1437 59L1437 119L1326 119L1326 104L1216 104L1216 119L1105 119L1105 104L995 104L995 59L884 59L884 74L774 74L774 149L663 149L663 119L553 119L553 74L442 74L442 104L332 104L332 149L221 149L221 89L111 89L111 74L0 74Z" fill="#f16667"></path><path d="M0 616L111 616L111 376L221 376L221 496L332 496L332 601L442 601L442 721L553 721L553 526L663 526L663 676L774 676L774 451L884 451L884 406L995 406L995 496L1105 496L1105 586L1216 586L1216 631L1326 631L1326 511L1437 511L1437 661L1547 661L1547 586L1658 586L1658 691L1768 691L1768 721L1879 721L1879 586L1989 586L1989 571L2100 571L2100 676L2100 224L2100 254L1989 254L1989 224L1879 224L1879 314L1768 314L1768 179L1658 179L1658 269L1547 269L1547 119L1437 119L1437 269L1326 269L1326 269L1216 269L1216 209L1105 209L1105 164L995 164L995 194L884 194L884 194L774 194L774 224L663 224L663 179L553 179L553 224L442 224L442 254L332 254L332 284L221 284L221 179L111 179L111 164L0 164Z" fill="#e75b66"></path><path d="M0 751L111 751L111 451L221 451L221 616L332 616L332 646L442 646L442 781L553 781L553 601L663 601L663 811L774 811L774 571L884 571L884 526L995 526L995 571L1105 571L1105 721L1216 721L1216 691L1326 691L1326 616L1437 616L1437 721L1547 721L1547 646L1658 646L1658 751L1768 751L1768 826L1879 826L1879 646L1989 646L1989 661L2100 661L2100 781L2100 674L2100 569L1989 569L1989 584L1879 584L1879 719L1768 719L1768 689L1658 689L1658 584L1547 584L1547 659L1437 659L1437 509L1326 509L1326 629L1216 629L1216 584L1105 584L1105 494L995 494L995 404L884 404L884 449L774 449L774 674L663 674L663 524L553 524L553 719L442 719L442 599L332 599L332 494L221 494L221 374L111 374L111 614L0 614Z" fill="#dd5065"></path><path d="M0 826L111 826L111 601L221 601L221 781L332 781L332 856L442 856L442 931L553 931L553 721L663 721L663 1006L774 1006L774 751L884 751L884 706L995 706L995 646L1105 646L1105 886L1216 886L1216 841L1326 841L1326 691L1437 691L1437 796L1547 796L1547 736L1658 736L1658 826L1768 826L1768 901L1879 901L1879 736L1989 736L1989 796L2100 796L2100 901L2100 779L2100 659L1989 659L1989 644L1879 644L1879 824L1768 824L1768 749L1658 749L1658 644L1547 644L1547 719L1437 719L1437 614L1326 614L1326 689L1216 689L1216 719L1105 719L1105 569L995 569L995 524L884 524L884 569L774 569L774 809L663 809L663 599L553 599L553 779L442 779L442 644L332 644L332 614L221 614L221 449L111 449L111 749L0 749Z" fill="#d34463"></path><path d="M0 961L111 961L111 826L221 826L221 946L332 946L332 991L442 991L442 1051L553 1051L553 1081L663 1081L663 1186L774 1186L774 901L884 901L884 1006L995 1006L995 946L1105 946L1105 1066L1216 1066L1216 1066L1326 1066L1326 856L1437 856L1437 1021L1547 1021L1547 1021L1658 1021L1658 991L1768 991L1768 1021L1879 1021L1879 931L1989 931L1989 1021L2100 1021L2100 1006L2100 899L2100 794L1989 794L1989 734L1879 734L1879 899L1768 899L1768 824L1658 824L1658 734L1547 734L1547 794L1437 794L1437 689L1326 689L1326 839L1216 839L1216 884L1105 884L1105 644L995 644L995 704L884 704L884 749L774 749L774 1004L663 1004L663 719L553 719L553 929L442 929L442 854L332 854L332 779L221 779L221 599L111 599L111 824L0 824Z" fill="#c73962"></path><path d="M0 1201L111 1201L111 1006L221 1006L221 1096L332 1096L332 1096L442 1096L442 1186L553 1186L553 1171L663 1171L663 1306L774 1306L774 1126L884 1126L884 1156L995 1156L995 1186L1105 1186L1105 1261L1216 1261L1216 1141L1326 1141L1326 1081L1437 1081L1437 1171L1547 1171L1547 1261L1658 1261L1658 1231L1768 1231L1768 1111L1879 1111L1879 1111L1989 1111L1989 1156L2100 1156L2100 1231L2100 1004L2100 1019L1989 1019L1989 929L1879 929L1879 1019L1768 1019L1768 989L1658 989L1658 1019L1547 1019L1547 1019L1437 1019L1437 854L1326 854L1326 1064L1216 1064L1216 1064L1105 1064L1105 944L995 944L995 1004L884 1004L884 899L774 899L774 1184L663 1184L663 1079L553 1079L553 1049L442 1049L442 989L332 989L332 944L221 944L221 824L111 824L111 959L0 959Z" fill="#bc2e61"></path><path d="M0 1501L111 1501L111 1501L221 1501L221 1501L332 1501L332 1501L442 1501L442 1501L553 1501L553 1501L663 1501L663 1501L774 1501L774 1501L884 1501L884 1501L995 1501L995 1501L1105 1501L1105 1501L1216 1501L1216 1501L1326 1501L1326 1501L1437 1501L1437 1501L1547 1501L1547 1501L1658 1501L1658 1501L1768 1501L1768 1501L1879 1501L1879 1501L1989 1501L1989 1501L2100 1501L2100 1501L2100 1229L2100 1154L1989 1154L1989 1109L1879 1109L1879 1109L1768 1109L1768 1229L1658 1229L1658 1259L1547 1259L1547 1169L1437 1169L1437 1079L1326 1079L1326 1139L1216 1139L1216 1259L1105 1259L1105 1184L995 1184L995 1154L884 1154L884 1124L774 1124L774 1304L663 1304L663 1169L553 1169L553 1184L442 1184L442 1094L332 1094L332 1094L221 1094L221 1004L111 1004L111 1199L0 1199Z" fill="#b0235f"></path></svg>